<svg width="761" height="443" viewBox="0 0 761 443" fill="none" xmlns="http://www.w3.org/2000/svg">
<path d="M698.053 311.611C729.265 265.707 777.13 217.898 755.551 157.373C747.306 128.432 710.271 75.9395 679.277 72.2095C664.365 72.2095 655.14 79.8873 623.03 121.68C611.846 104.99 591.764 88.8992 573.696 72.7812C549.804 67.1181 516.388 100.28 496.007 119.747V26.9865H457.04C434.508 34.9094 417.093 34.6643 400.276 55.6286V59.8759L399.95 60.2026V64.45L399.623 64.7767V69.024L399.297 69.3507V73.598L398.97 73.9247V78.0631C391.242 82.6372 381.228 94.0722 370.153 107.086C366.316 91.2135 360.874 84.9786 352.928 74.1698H297.443L293.117 77.4369H267.456C262.259 82.4738 256 83.4539 246.966 84.5975C226.149 14.1357 130.609 6.0222 66.7978 20.3705C34.0622 -29.8894 -28.9599 21.7863 15.1501 78.7438C29.6539 82.3104 21.817 244.171 23.5585 255.307L12.8371 269.601L83.9139 371.699C91.125 369.766 113.955 363.232 118.745 362.66C151.072 361.408 189.413 377.036 216.19 367.643C225.006 392.5 233.932 418.365 255.048 436.062C276.708 419.645 323.866 412.512 310.587 372.761C329.363 350.844 333.227 351.007 346.37 330.424C358.887 353.594 388.33 384.822 416.358 362.742C436.576 378.206 454.999 367.098 471.571 355.2L471.434 355.418V356.752L470.482 358.222V359.556L469.53 361.027V362.361L468.577 363.831V365.192L467.625 366.662V367.997L466.672 369.467C466.672 385.421 465.774 399.47 493.911 412.43C536.96 432.414 589.914 401.703 606.703 359.202C644.473 393.753 675.277 343.983 697.998 311.665L698.053 311.611Z" fill="black"/>
<path d="M621.697 331.241V317.819H560.716V331.241H553.831C550.511 330.751 547.191 330.452 543.899 330.452C531.463 330.452 520.715 334.263 512.905 340.743C504.17 334.1 492.932 330.261 480.196 330.261C472.577 330.261 465.393 331.758 458.917 334.399V331.241H339.268C335.975 330.588 332.546 330.261 329.009 330.261C300.627 330.261 279.239 351.307 279.239 379.377C279.239 407.448 299.348 426.996 326.424 428.249V443.005H387.405V426.261C391.813 427.595 396.575 428.33 401.691 428.33C405.011 428.33 408.222 428.004 411.297 427.35H458.944V424.11C465.856 426.915 473.611 428.521 481.938 428.521C493.421 428.521 503.707 425.689 512.415 420.326C522.347 425.553 533.368 428.303 544.742 428.303C557.26 428.303 566.947 425.172 574.158 420.19C580.852 425.335 589.832 428.194 600.445 428.194C609.18 428.194 616.908 426.424 624.064 422.803L635.983 416.759V387.518H636.201V331.214H621.724L621.697 331.241Z" fill="black"/>
<path d="M348.166 398C343.921 403.01 338.179 406.522 328.982 406.522C314.641 406.522 300.981 396.911 300.981 379.377V379.187C300.981 361.653 314.423 352.042 328.982 352.042C338.288 352.042 344.03 355.663 348.166 359.883V353.022H365.608V421.224H348.166V398ZM348.383 379.377V379.187C348.383 370.474 341.608 364.675 333.471 364.675C325.335 364.675 318.423 370.365 318.423 379.187V379.377C318.423 388.09 325.308 393.889 333.471 393.889C341.635 393.889 348.383 388.117 348.383 379.377Z" fill="white"/>
<path d="M380.765 387.028V353.022H398.208V382.318C398.208 389.369 401.99 392.99 408.766 392.99C415.542 392.99 419.678 389.369 419.678 382.318V353.022H437.12V405.542H419.678V398.082C415.651 402.493 410.371 406.522 401.664 406.522C388.357 406.522 380.765 399.171 380.765 387.028Z" fill="white"/>
<path d="M449.747 379.568V379.377C449.747 364.376 462.264 352.042 480.169 352.042C500.714 352.042 510.129 365.655 510.129 380.548C510.129 381.719 510.02 382.998 509.912 384.469H467.08C468.795 391.221 474.319 394.76 482.128 394.76C487.979 394.76 492.115 393.181 497.04 389.369L507.027 396.911C501.177 403.091 493.013 406.713 481.884 406.713C463.407 406.713 449.747 395.631 449.747 379.568ZM493.149 375.157C492.115 368.487 487.516 363.994 480.169 363.994C472.822 363.994 468.223 368.405 466.863 375.157H493.149Z" fill="white"/>
<path d="M518.293 398.572L525.749 388.77C532.524 392.99 539.3 395.032 545.151 395.032C550.212 395.032 552.498 393.453 552.498 391.112V390.921C552.498 387.681 546.538 386.701 539.763 384.85C531.164 382.781 521.395 379.268 521.395 369.086V368.895C521.395 358.222 531.49 352.233 543.899 352.233C551.709 352.233 560.09 354.492 566.865 358.304L560.199 368.596C554.103 365.546 548.035 363.695 543.545 363.695C539.3 363.695 537.123 365.274 537.123 367.316V367.507C537.123 370.256 542.974 372.026 549.641 373.769C558.239 376.11 568.226 379.758 568.226 389.342V389.533C568.226 401.186 558.022 406.495 544.688 406.495C535.953 406.495 526.538 404.044 518.293 398.545V398.572Z" fill="white"/>
<path d="M582.458 390.649V365.764H575.111V353.022H582.458V339.6H599.9V353.022H614.377V365.764H599.9V388.199C599.9 391.629 601.723 393.29 605.533 393.29C608.635 393.29 611.492 392.691 614.132 391.439V403.391C610.458 405.242 606.213 406.44 600.363 406.44C589.805 406.44 582.458 402.819 582.458 390.676V390.649Z" fill="white"/>
<path d="M223.074 224.813C223.074 234.86 217.822 244.797 207.346 254.653C194.447 266.687 177.957 272.677 157.875 272.677C148.269 272.677 131.017 270.39 106.118 265.789C94.3358 263.611 85.4648 262.522 79.5871 262.522C75.6686 262.522 71.1243 262.957 65.9813 263.829C60.8383 264.7 53.8993 266.333 45.1916 268.757C44.5385 267.668 43.8855 266.579 43.2324 265.489C44.5385 263.747 45.4093 262.331 45.8447 261.215C47.5862 257.512 48.457 253.455 48.457 249.099V61.5641C48.457 57.6435 44.348 53.0422 36.1846 47.7876C27.9939 42.5329 23.9121 36.8698 23.9121 30.7439C23.9121 28.7836 24.8373 26.4965 26.6877 23.8556C28.5381 21.2419 30.5518 19.935 32.7559 19.935C37.3547 19.935 40.5112 23.5833 42.2528 30.9072C43.9943 38.2311 49.2461 41.8794 57.9811 41.8794C71.0971 39.9191 83.8593 38.0677 96.3222 36.298C108.758 34.5555 120.568 33.6843 131.697 33.6843C151.344 33.6843 170.365 38.939 188.706 49.4211C210.121 61.673 220.815 76.8381 220.815 94.9981C220.815 97.8296 214.856 102.213 202.965 108.121C191.046 114.029 185.114 118.168 185.114 120.564C185.114 121.87 191.454 127.561 204.107 137.607C216.761 147.654 223.101 153.889 223.101 156.285V224.786L223.074 224.813ZM155.916 86.6123C155.916 74.7689 154.174 65.6753 150.664 59.3043C146.065 50.7552 138.31 46.4807 127.398 46.4807H121.82C120.949 46.4807 120.078 46.6985 119.207 47.1341C118.336 47.5697 116.813 48.5499 114.608 50.0746V132.026C114.608 136.409 115.915 138.587 118.527 138.587C125.303 138.587 133.221 132.788 142.283 121.163C151.344 109.537 155.888 98.0202 155.888 86.6123H155.916ZM155.916 200.228V188.112C155.916 170.851 154.61 159.552 151.997 154.188C149.385 148.825 145.221 146.156 139.561 146.156C134.527 146.156 129.085 149.424 123.18 155.985C121.221 158.163 118.69 161.458 115.642 165.814V245.478C115.642 248.092 116.894 250.134 119.398 251.55C121.901 252.965 125.139 253.673 129.058 253.673C140.623 253.673 148.269 249.644 151.997 241.558C154.61 235.867 155.916 225.93 155.916 211.717V200.255V200.228ZM347.567 139.894C347.567 152.8 345.499 166.93 341.336 182.34C337.172 197.75 331.295 211.581 323.648 223.806C312.954 240.632 305.743 251.332 302.015 255.933C295.892 261.406 287.484 270.472 276.79 283.132C273.062 285.964 270.014 289.367 267.619 293.288C265.225 297.208 264.027 301.483 264.027 306.084C264.027 309.569 264.517 312.591 265.497 315.096C266.476 317.601 267.51 320.296 268.599 323.128C268.599 324.652 265.007 327.266 257.796 330.996C251.673 334.045 245.224 337.558 238.476 341.478C235.646 338.429 233.768 335.407 232.897 332.466C232.027 329.526 231.591 326.068 231.591 322.148C231.591 308.807 238.149 297.562 251.238 288.387C264.354 279.212 270.885 272.868 270.885 269.383C266.34 263.91 261.361 256.586 255.946 247.411C250.53 238.236 245.877 227.209 241.986 214.304C239.183 205.564 237.278 198.131 236.299 192.006C235.319 185.88 234.829 180.108 234.829 174.635V158.245C234.829 151.248 234.884 144.087 234.993 136.763C235.101 129.439 235.918 121.952 237.442 114.302C238.312 108.611 243.891 105.126 254.15 103.819C264.408 102.513 271.511 100.443 275.456 97.5846H280.055C280.49 101.097 280.708 103.602 280.708 105.126C280.708 107.522 280.382 110.925 279.729 115.282C278.205 125.328 277.443 134.286 277.443 142.154C277.443 156.802 278.858 171.232 281.715 185.417C285.633 205.074 291.756 220.811 300.056 232.627C305.09 230.667 309.498 222.091 313.335 206.898C317.144 191.706 319.077 177.548 319.077 164.452C319.077 154.842 317.226 143.27 313.498 129.712C308.682 114.41 305.307 103.275 303.348 96.2777L305.961 94.3174H338.723C340.465 96.7133 342.37 102.131 344.465 110.544C346.533 118.957 347.567 128.732 347.567 139.894ZM478.618 252.666C476.659 255.47 470.645 260.099 460.604 266.524C454.482 270.39 450.345 272.323 448.168 272.323C444.005 272.323 440.087 268.784 436.386 261.678C432.658 254.572 429.719 251.032 427.542 251.032C426.236 251.032 421.583 254.599 413.61 261.678C405.637 268.784 400.657 272.323 398.698 272.323C394.779 272.323 389.201 268.375 381.99 260.48C364.738 241.612 356.111 218.578 356.111 191.379C356.111 185.907 357.744 178.011 361.037 167.692C364.302 157.374 368.03 148.607 372.166 141.365C373.908 138.07 380.684 129.63 392.466 116.044C405.12 101.124 412.548 93.664 414.753 93.664C416.494 93.664 418.29 94.4263 420.168 95.951C422.018 97.4757 423.379 98.5647 424.277 99.2181L426.399 97.0945C427.379 96.1143 427.869 94.9708 427.869 93.664V59.5766C431.569 55.8738 437.257 53.2328 444.903 51.7082C452.549 50.1835 458.536 48.5499 462.917 46.7802H469.475V236.548C469.475 239.189 470.291 241.803 471.924 244.443C473.557 247.084 475.788 249.807 478.645 252.639L478.618 252.666ZM426.508 152.364C426.508 150.404 424.113 146.565 419.297 140.902C414.48 135.211 408.603 128.895 401.609 121.898C397.691 126.281 394.507 134.15 392.113 145.503C391.459 149.233 390.697 154.569 389.827 161.566C389.827 173.165 392.112 184.736 396.711 196.307C403.052 212.48 412.657 225.058 425.528 234.016C425.528 219.368 425.692 202.705 426.018 184.028C426.345 165.351 426.508 154.814 426.508 152.391V152.364ZM613.588 279.593C613.588 291.164 606.54 302.354 592.444 313.163C578.349 323.972 564.308 329.363 550.348 329.363C542.702 329.363 534.837 327.729 526.756 324.435C518.674 321.167 514.646 317.328 514.646 312.972C517.041 309.242 519 306.52 520.551 304.777C525.585 299.305 530.701 296.582 535.953 296.582C539.436 301.837 543.273 306.52 547.409 310.685C551.545 314.824 556.688 316.92 562.811 316.92C567.845 316.92 572.852 314.796 577.886 310.522C582.92 306.247 585.424 301.292 585.424 295.602C585.424 292.77 581.369 285.555 573.315 273.957C565.233 262.386 560.307 256.586 558.566 256.586C556.171 256.586 551.681 259.2 545.123 264.455C538.565 269.71 533.531 272.323 530.048 272.323C525.449 272.323 517.612 264.346 506.456 248.419C493.122 229.442 486.482 210.873 486.482 192.768C486.482 176.84 494.782 158.517 511.381 137.771C517.286 130.365 527.218 121.026 541.205 109.782C555.192 98.5375 563.056 92.9289 564.797 92.9289C573.532 100.579 579.981 106.351 584.118 110.272C597.234 122.714 603.764 130.801 603.764 134.503V250.079C603.764 252.257 605.397 256.069 608.69 261.542C611.982 267.014 613.615 273.004 613.615 279.538L613.588 279.593ZM556.906 238.889V140.874C554.076 136.954 551.872 133.986 550.348 132.026C545.314 125.9 541.831 122.851 539.872 122.851C535.49 122.851 531.028 130.719 526.429 146.456C524.252 154.106 523.164 159.906 523.164 163.826C523.164 178.256 526.32 192.223 532.66 205.782C541.178 223.915 549.26 234.969 556.906 238.889ZM735.795 182.531C735.795 193.231 733.836 203.413 729.89 213.024C727.278 219.368 724.094 224.949 720.393 229.741C713.4 239.352 707.958 246.567 704.012 251.386C692.229 265.816 684.474 273.031 680.746 273.031C677.698 273.031 673.97 271.234 669.617 267.613C665.235 264.019 661.099 260.453 657.181 256.968C646.269 248.228 637.861 238.345 631.956 227.291C626.051 216.264 623.112 203.958 623.112 190.426C623.112 180.816 624.636 171.695 627.711 163.064C630.758 154.433 634.813 146.837 639.82 140.275C664.065 108.366 677.943 92.4115 681.426 92.4115C683.168 92.4115 689.073 97.6662 699.114 108.148C710.243 119.502 718.108 129.14 722.706 136.981C726.407 143.325 729.536 150.594 732.04 158.789C734.543 166.985 735.795 174.907 735.795 182.558V182.531ZM705.645 221.846C705.645 203.931 701.155 186.887 692.202 170.715C678.868 146.891 667.63 134.994 658.46 134.994C655.847 134.994 654.024 137.008 653.045 141.065C652.065 145.122 651.575 149.315 651.575 153.698C651.575 173.138 655.385 188.657 663.031 200.255C668.719 208.995 681.263 221.029 700.719 236.303C702.679 234.343 703.985 232.382 704.638 230.395C705.291 228.434 705.617 225.603 705.617 221.873L705.645 221.846Z" fill="white"/>
</svg>
