<svg width="628" height="244" viewBox="0 0 628 244" fill="none" xmlns="http://www.w3.org/2000/svg">
<g filter="url(#filter0_d_15_86)">
<rect x="40" y="20" width="548" height="164" rx="20" fill="white"/>
</g>
<path d="M184.758 137.152C172.758 137.152 161.718 133.408 153.27 126.016L163.638 113.632C170.454 119.008 177.75 121.696 185.43 121.696C190.518 121.696 193.206 120.064 193.206 117.088V116.896C193.206 114.016 190.998 112.672 181.782 110.368C167.574 107.104 156.438 103.168 156.438 89.344V89.152C156.438 76.576 166.326 67.648 182.454 67.648C193.974 67.648 202.806 70.72 210.102 76.576L200.79 89.728C194.646 85.216 188.022 83.104 181.974 83.104C177.462 83.104 175.254 84.832 175.254 87.424V87.616C175.254 90.592 177.558 92.128 186.966 94.144C202.326 97.504 211.926 102.496 211.926 115.072V115.264C211.926 128.992 201.078 137.152 184.758 137.152ZM235.524 136V85.12H215.46V68.8H274.308V85.12H254.148V136H235.524ZM268.578 136L297.09 68.32H315.042L343.65 136H323.682L318.882 123.904H292.866L288.066 136H268.578ZM298.338 109.408H313.41L305.922 90.4L298.338 109.408ZM350.171 136V68.8H381.947C392.315 68.8 399.323 71.488 403.835 76C407.771 79.936 409.787 85.216 409.787 91.648V91.84C409.787 102.208 404.411 109.024 395.963 112.576L411.995 136H390.587L377.051 115.648H368.795V136H350.171ZM368.795 101.056H381.179C387.419 101.056 391.163 97.984 391.163 93.088V92.896C391.163 87.52 387.227 84.832 381.083 84.832H368.795V101.056ZM435.587 136V85.12H415.523V68.8H474.371V85.12H454.211V136H435.587Z" fill="black"/>
<defs>
<filter id="filter0_d_15_86" x="0" y="0" width="628" height="244" filterUnits="userSpaceOnUse" color-interpolation-filters="sRGB">
<feFlood flood-opacity="0" result="BackgroundImageFix"/>
<feColorMatrix in="SourceAlpha" type="matrix" values="0 0 0 0 0 0 0 0 0 0 0 0 0 0 0 0 0 0 127 0" result="hardAlpha"/>
<feOffset dy="20"/>
<feGaussianBlur stdDeviation="20"/>
<feComposite in2="hardAlpha" operator="out"/>
<feColorMatrix type="matrix" values="0 0 0 0 0 0 0 0 0 0 0 0 0 0 0 0 0 0 0.25 0"/>
<feBlend mode="normal" in2="BackgroundImageFix" result="effect1_dropShadow_15_86"/>
<feBlend mode="normal" in="SourceGraphic" in2="effect1_dropShadow_15_86" result="shape"/>
</filter>
</defs>
</svg>
